<?xml version="1.0" encoding="UTF-8" standalone="no"?>
<!-- Created with Inkscape (http://www.inkscape.org/) -->

<svg
   width="60.72583mm"
   height="24.032219mm"
   viewBox="0 0 60.72583 24.032219"
   version="1.1"
   id="svg614"
   inkscape:version="1.2.2 (b0a8486541, 2022-12-01)"
   sodipodi:docname="hwt-text-white.svg"
   xmlns:inkscape="http://www.inkscape.org/namespaces/inkscape"
   xmlns:sodipodi="http://sodipodi.sourceforge.net/DTD/sodipodi-0.dtd"
   xmlns="http://www.w3.org/2000/svg"
   xmlns:svg="http://www.w3.org/2000/svg">
  <sodipodi:namedview
     id="namedview616"
     pagecolor="#727272"
     bordercolor="#000000"
     borderopacity="0.25"
     inkscape:showpageshadow="2"
     inkscape:pageopacity="0"
     inkscape:pagecheckerboard="0"
     inkscape:deskcolor="#d1d1d1"
     inkscape:document-units="mm"
     showgrid="false"
     inkscape:zoom="2.0032448"
     inkscape:cx="102.58357"
     inkscape:cy="76.126493"
     inkscape:window-width="1916"
     inkscape:window-height="1013"
     inkscape:window-x="0"
     inkscape:window-y="29"
     inkscape:window-maximized="1"
     inkscape:current-layer="layer1" />
  <defs
     id="defs611" />
  <g
     inkscape:label="Layer 1"
     inkscape:groupmode="layer"
     id="layer1"
     transform="translate(-51.839249,-195.63371)">
    <g
       id="g1829"
       transform="translate(14.51363,26.280467)">
      <g
         fill="#ffffff"
         fill-opacity="1"
         id="g1273"
         transform="matrix(0.35277777,0,0,0.35277777,-137.26633,74.705258)">
        <g
           id="use1257"
           transform="translate(495.10889,285.54059)">
          <path
             d="M 1.15625,0 H 5.375 v -7.109375 h 5.953125 V 0 h 4.203125 v -17.046875 h -4.203125 v 6.453125 H 5.375 v -6.453125 H 1.15625 Z m 0,0"
             id="path1703" />
        </g>
        <g
           id="use1259"
           transform="translate(511.80249,285.54059)">
          <path
             d="m 8.875,-3.03125 c -2.71875,0 -4.125,-2.359375 -4.125,-5.453125 0,-3.109375 1.40625,-5.484375 4.125,-5.484375 2.765625,0 4.109375,2.375 4.109375,5.484375 0,3.09375 -1.34375,5.453125 -4.109375,5.453125 z m -0.015625,3.4375 c 5.15625,0 8.40625,-3.796875 8.40625,-8.890625 0,-5.109375 -3.25,-8.890625 -8.40625,-8.890625 -5.125,0 -8.390625,3.78125 -8.390625,8.890625 0,5.09375 3.265625,8.890625 8.390625,8.890625 z m 0,0"
             id="path1711" />
        </g>
        <g
           id="use1261"
           transform="translate(529.54089,285.54059)">
          <path
             d="M 1.15625,0 H 5.375 v -7.109375 h 5.953125 V 0 h 4.203125 v -17.046875 h -4.203125 v 6.453125 H 5.375 v -6.453125 H 1.15625 Z m 0,0"
             id="path1707" />
        </g>
        <g
           id="use1263"
           transform="translate(546.2345,285.54059)">
          <path
             d="M 1.15625,0 H 4.9375 V -8.5625 C 4.9375,-9.25 4.875,-12 4.875,-12 h 0.046875 c 0,0 0.59375,2.578125 0.78125,3.203125 L 8.125,0 h 3.46875 l 2.4375,-8.828125 C 14.21875,-9.4375 14.8125,-12 14.8125,-12 h 0.0625 c 0,0 -0.07813,2.71875 -0.07813,3.421875 V 0 h 3.84375 V -17.046875 H 12.9375 l -2.078125,7.46875 c -0.296875,1.0625 -0.953125,3.875 -0.953125,3.875 H 9.859375 c 0,0 -0.671875,-2.8125 -0.984375,-3.875 l -2.0625,-7.46875 H 1.15625 Z m 0,0"
             id="path1715" />
        </g>
        <g
           id="use1265"
           transform="translate(566.03882,285.54059)">
          <path
             d="m -0.03125,0 h 4.234375 l 0.96875,-3.078125 h 5.9375 l 1,3.078125 h 4.421875 l -6.125,-17.046875 H 6.078125 Z m 6.1875,-6.109375 1.296875,-4.125 c 0.296875,-0.875 0.6875,-2.40625 0.6875,-2.40625 H 8.1875 c 0,0 0.390625,1.53125 0.671875,2.40625 l 1.28125,4.125 z m 0,0"
             id="path1647" />
        </g>
        <g
           id="use1267"
           transform="translate(582.5899,285.54059)">
          <path
             d="m 1.15625,0 h 4.109375 v -7.9375 c 0,-0.59375 -0.046875,-2.796875 -0.046875,-2.796875 h 0.046875 c 0,0 0.9375,1.84375 1.21875,2.296875 L 11.46875,0 h 4.234375 V -17.046875 H 11.59375 v 8.078125 c 0,0.59375 0.04687,2.65625 0.04687,2.65625 h -0.04687 c 0,0 -0.90625,-1.703125 -1.171875,-2.171875 l -5.03125,-8.5625 H 1.15625 Z m 0,0"
             id="path1631" />
        </g>
        <g
           id="use1269"
           transform="translate(599.44971,285.54059)">
          <path
             d="m 1.15625,0 h 4.109375 v -7.9375 c 0,-0.59375 -0.046875,-2.796875 -0.046875,-2.796875 h 0.046875 c 0,0 0.9375,1.84375 1.21875,2.296875 L 11.46875,0 h 4.234375 V -17.046875 H 11.59375 v 8.078125 c 0,0.59375 0.04687,2.65625 0.04687,2.65625 h -0.04687 c 0,0 -0.90625,-1.703125 -1.171875,-2.171875 l -5.03125,-8.5625 H 1.15625 Z m 0,0"
             id="path1635" />
        </g>
        <g
           id="use1271"
           transform="translate(616.30951,285.54059)" />
      </g>
      <g
         fill="#ffffff"
         fill-opacity="1"
         id="g1277"
         transform="matrix(0.35277777,0,0,0.35277777,-137.26633,74.705258)">
        <g
           id="use1275"
           transform="translate(495.10889,311.03006)">
          <path
             d="m 4.65625,0 h 4.125 l 1.78125,-8.171875 c 0.296875,-1.359375 0.578125,-3.171875 0.578125,-3.171875 h 0.04687 c 0,0 0.28125,1.8125 0.59375,3.171875 L 13.5625,0 h 4.109375 l 4.65625,-17.046875 H 18.09375 l -1.6875,7.109375 c -0.375,1.6875 -0.84375,4.265625 -0.84375,4.265625 h -0.04687 c 0,0 -0.4375,-2.359375 -0.8125,-4.109375 l -1.59375,-7.265625 H 9.21875 l -1.59375,7.3125 c -0.375,1.71875 -0.828125,4.0625 -0.828125,4.0625 H 6.75 c 0,0 -0.40625,-2.578125 -0.78125,-4.21875 L 4.25,-17.046875 H 0 Z m 0,0"
             id="path1671" />
        </g>
      </g>
      <g
         fill="#ffffff"
         fill-opacity="1"
         id="g1297"
         transform="matrix(0.35277777,0,0,0.35277777,-137.26633,74.705258)">
        <g
           id="use1279"
           transform="translate(516.00555,311.03006)">
          <path
             d="m -0.03125,0 h 4.234375 l 0.96875,-3.078125 h 5.9375 l 1,3.078125 h 4.421875 l -6.125,-17.046875 H 6.078125 Z m 6.1875,-6.109375 1.296875,-4.125 c 0.296875,-0.875 0.6875,-2.40625 0.6875,-2.40625 H 8.1875 c 0,0 0.390625,1.53125 0.671875,2.40625 l 1.28125,4.125 z m 0,0"
             id="path1651" />
        </g>
        <g
           id="use1281"
           transform="translate(532.55664,311.03006)">
          <path
             d="m 1.15625,0 h 4.109375 v -7.9375 c 0,-0.59375 -0.046875,-2.796875 -0.046875,-2.796875 h 0.046875 c 0,0 0.9375,1.84375 1.21875,2.296875 L 11.46875,0 h 4.234375 V -17.046875 H 11.59375 v 8.078125 c 0,0.59375 0.04687,2.65625 0.04687,2.65625 h -0.04687 c 0,0 -0.90625,-1.703125 -1.171875,-2.171875 l -5.03125,-8.5625 H 1.15625 Z m 0,0"
             id="path1639" />
        </g>
        <g
           id="use1283"
           transform="translate(549.41644,311.03006)">
          <path
             d="m 1.15625,0 h 4.109375 v -7.9375 c 0,-0.59375 -0.046875,-2.796875 -0.046875,-2.796875 h 0.046875 c 0,0 0.9375,1.84375 1.21875,2.296875 L 11.46875,0 h 4.234375 V -17.046875 H 11.59375 v 8.078125 c 0,0.59375 0.04687,2.65625 0.04687,2.65625 h -0.04687 c 0,0 -0.90625,-1.703125 -1.171875,-2.171875 l -5.03125,-8.5625 H 1.15625 Z m 0,0"
             id="path1643" />
        </g>
        <g
           id="use1285"
           transform="translate(566.27625,311.03006)">
          <path
             d="m -0.03125,0 h 4.234375 l 0.96875,-3.078125 h 5.9375 l 1,3.078125 h 4.421875 l -6.125,-17.046875 H 6.078125 Z m 6.1875,-6.109375 1.296875,-4.125 c 0.296875,-0.875 0.6875,-2.40625 0.6875,-2.40625 H 8.1875 c 0,0 0.390625,1.53125 0.671875,2.40625 l 1.28125,4.125 z m 0,0"
             id="path1655" />
        </g>
        <g
           id="use1287"
           transform="translate(582.82739,311.03006)">
          <path
             d="M 1.15625,0 H 4.9375 V -8.5625 C 4.9375,-9.25 4.875,-12 4.875,-12 h 0.046875 c 0,0 0.59375,2.578125 0.78125,3.203125 L 8.125,0 h 3.46875 l 2.4375,-8.828125 C 14.21875,-9.4375 14.8125,-12 14.8125,-12 h 0.0625 c 0,0 -0.07813,2.71875 -0.07813,3.421875 V 0 h 3.84375 V -17.046875 H 12.9375 l -2.078125,7.46875 c -0.296875,1.0625 -0.953125,3.875 -0.953125,3.875 H 9.859375 c 0,0 -0.671875,-2.8125 -0.984375,-3.875 l -2.0625,-7.46875 H 1.15625 Z m 0,0"
             id="path1719" />
        </g>
        <g
           id="use1289"
           transform="translate(602.63171,311.03006)">
          <path
             d="m -0.03125,0 h 4.234375 l 0.96875,-3.078125 h 5.9375 l 1,3.078125 h 4.421875 l -6.125,-17.046875 H 6.078125 Z m 6.1875,-6.109375 1.296875,-4.125 c 0.296875,-0.875 0.6875,-2.40625 0.6875,-2.40625 H 8.1875 c 0,0 0.390625,1.53125 0.671875,2.40625 l 1.28125,4.125 z m 0,0"
             id="path1659" />
        </g>
        <g
           id="use1291"
           transform="translate(619.1828,311.03006)">
          <path
             d="M 1.15625,0 H 5.375 V -5.859375 L 6.796875,-7.375 11.6875,0 h 4.890625 L 9.6875,-10.203125 l 6.515625,-6.84375 h -5 L 5.375,-10.875 v -6.171875 H 1.15625 Z m 0,0"
             id="path1667" />
        </g>
        <g
           id="use1293"
           transform="translate(635.73389,311.03006)">
          <path
             d="M 1.15625,0 H 14.171875 V -3.578125 H 5.375 V -7.21875 h 7.421875 v -3.296875 H 5.375 V -13.5625 h 8.65625 v -3.484375 h -12.875 z m 0,0"
             id="path1663" />
        </g>
        <g
           id="use1295"
           transform="translate(650.64648,311.03006)">
          <path
             d="M 1.15625,0 H 5.375 v -6.390625 h 2.53125 c 1.8125,0 2.609375,0.859375 2.828125,2.4375 C 11,-2.265625 10.921875,-0.265625 11.375,0 h 4.09375 V -0.21875 C 14.875,-0.421875 15.109375,-2.578125 14.75,-4.8125 c -0.234375,-1.703125 -1,-2.625 -2.46875,-3.125 v -0.078125 c 1.96875,-0.6875 2.9375,-2.140625 2.9375,-4.125 0,-3.171875 -2.5625,-4.90625 -5.9375,-4.90625 h -8.125 z M 5.375,-9.515625 v -4.1875 h 3.25 c 1.609375,0 2.421875,0.875 2.421875,2.109375 0,1.296875 -0.859375,2.078125 -2.515625,2.078125 z m 0,0"
             id="path1683" />
        </g>
      </g>
      <g
         fill="#ffffff"
         fill-opacity="1"
         id="g1303"
         transform="matrix(0.35277777,0,0,0.35277777,-137.26633,74.705258)">
        <g
           id="use1299"
           transform="translate(590.06995,336.138)">
          <path
             d="m 5.34375,0 h 4.203125 v -13.46875 h 4.984375 v -3.578125 h -14.125 v 3.578125 h 4.9375 z m 0,0"
             id="path1691" />
        </g>
        <g
           id="use1301"
           transform="translate(605.00629,336.138)">
          <path
             d="M 1.15625,0 H 5.375 v -6.390625 h 2.53125 c 1.8125,0 2.609375,0.859375 2.828125,2.4375 C 11,-2.265625 10.921875,-0.265625 11.375,0 h 4.09375 V -0.21875 C 14.875,-0.421875 15.109375,-2.578125 14.75,-4.8125 c -0.234375,-1.703125 -1,-2.625 -2.46875,-3.125 v -0.078125 c 1.96875,-0.6875 2.9375,-2.140625 2.9375,-4.125 0,-3.171875 -2.5625,-4.90625 -5.9375,-4.90625 h -8.125 z M 5.375,-9.515625 v -4.1875 h 3.25 c 1.609375,0 2.421875,0.875 2.421875,2.109375 0,1.296875 -0.859375,2.078125 -2.515625,2.078125 z m 0,0"
             id="path1687" />
        </g>
      </g>
      <g
         fill="#ffffff"
         fill-opacity="1"
         id="g1307"
         transform="matrix(0.35277777,0,0,0.35277777,-137.26633,74.705258)">
        <g
           id="use1305"
           transform="translate(621.05872,336.138)">
          <path
             d="m 8.171875,0.3125 c 4.71875,0 7.078125,-2.390625 7.078125,-6.328125 v -11.03125 H 11.046875 V -5.9375 c 0,1.671875 -0.921875,2.859375 -2.875,2.859375 -2.0625,0 -2.921875,-1.125 -2.921875,-2.78125 v -11.1875 H 1.046875 v 11.03125 c 0,3.984375 2.375,6.328125 7.125,6.328125 z m 0,0"
             id="path1699" />
        </g>
      </g>
      <g
         fill="#ffffff"
         fill-opacity="1"
         id="g1311"
         transform="matrix(0.35277777,0,0,0.35277777,-137.26633,74.705258)">
        <g
           id="use1309"
           transform="translate(637.46735,336.138)">
          <path
             d="m 7.9375,0.40625 c 3.90625,0 6.953125,-1.984375 6.953125,-5.5625 0,-3.640625 -2.84375,-4.625 -6.015625,-5.359375 C 6.34375,-11.09375 5.03125,-11.375 5.03125,-12.5625 c 0,-0.953125 0.984375,-1.59375 2.453125,-1.59375 1.5625,0 2.5625,0.734375 2.734375,2.046875 h 4.109375 c -0.171875,-3.578125 -3.015625,-5.25 -6.703125,-5.25 -3.796875,0 -6.75,1.59375 -6.75,5.25 0,3.578125 3.109375,4.484375 6.0625,5.171875 2.328125,0.578125 3.703125,0.859375 3.703125,2.21875 0,1.28125 -1.359375,1.78125 -2.734375,1.78125 -2.015625,0 -3.125,-0.703125 -3.328125,-2.421875 H 0.359375 C 0.453125,-1.59375 3.421875,0.40625 7.9375,0.40625 Z m 0,0"
             id="path1679" />
        </g>
      </g>
      <g
         fill="#ffffff"
         fill-opacity="1"
         id="g1317"
         transform="matrix(0.35277777,0,0,0.35277777,-137.26633,74.705258)">
        <g
           id="use1313"
           transform="translate(652.30872,336.138)">
          <path
             d="m 5.34375,0 h 4.203125 v -13.46875 h 4.984375 v -3.578125 h -14.125 v 3.578125 h 4.9375 z m 0,0"
             id="path1695" />
        </g>
        <g
           id="use1315"
           transform="translate(667.24512,336.138)" />
      </g>
    </g>
  </g>
</svg>
