<?xml version="1.0" encoding="UTF-8" standalone="no"?>
<!-- Created with Inkscape (http://www.inkscape.org/) -->

<svg
   width="88.727562mm"
   height="26.08968mm"
   viewBox="0 0 88.727562 26.08968"
   version="1.1"
   id="svg2957"
   inkscape:version="1.2.2 (b0a8486541, 2022-12-01)"
   sodipodi:docname="hwt.svg"
   xmlns:inkscape="http://www.inkscape.org/namespaces/inkscape"
   xmlns:sodipodi="http://sodipodi.sourceforge.net/DTD/sodipodi-0.dtd"
   xmlns="http://www.w3.org/2000/svg"
   xmlns:svg="http://www.w3.org/2000/svg">
  <sodipodi:namedview
     id="namedview2959"
     pagecolor="#ffffff"
     bordercolor="#000000"
     borderopacity="0.25"
     inkscape:showpageshadow="2"
     inkscape:pageopacity="0.0"
     inkscape:pagecheckerboard="0"
     inkscape:deskcolor="#d1d1d1"
     inkscape:document-units="mm"
     showgrid="false"
     inkscape:zoom="2.0938813"
     inkscape:cx="241.4177"
     inkscape:cy="159.75118"
     inkscape:window-width="1916"
     inkscape:window-height="1013"
     inkscape:window-x="0"
     inkscape:window-y="29"
     inkscape:window-maximized="1"
     inkscape:current-layer="layer1" />
  <defs
     id="defs2954">
    <clipPath
       clipPathUnits="userSpaceOnUse"
       id="clipPath1004">
      <g
         id="g1008"
         transform="matrix(2.8346458,0,0,-2.8346458,-385.61347,385.91845)">
        <path
           d="M 27.377698,41.1121 H 324.37777 V 251.11224 H 27.377698 Z"
           id="path1006"
           style="stroke-width:0.352778" />
      </g>
    </clipPath>
    <clipPath
       clipPathUnits="userSpaceOnUse"
       id="clipPath998">
      <g
         id="g1002"
         transform="matrix(2.8346458,0,0,-2.8346458,-466.40408,396.14543)">
        <path
           d="M 27.377698,41.1121 H 324.37777 V 251.11224 H 27.377698 Z"
           id="path1000"
           style="stroke-width:0.352778" />
      </g>
    </clipPath>
    <clipPath
       clipPathUnits="userSpaceOnUse"
       id="clipPath3323">
      <g
         id="g3329">
        <g
           id="g3327"
           transform="translate(-81.948367,-46.59458)">
          <path
             d="M 27.377698,41.1121 H 324.37777 V 251.11224 H 27.377698 Z"
             id="path3325"
             style="stroke-width:0.352778" />
        </g>
      </g>
    </clipPath>
    <clipPath
       clipPathUnits="userSpaceOnUse"
       id="clipPath3338">
      <g
         id="g3344">
        <g
           id="g3342"
           transform="translate(-81.948367,-46.594579)">
          <path
             d="M 27.377698,41.1121 H 324.37777 V 251.11224 H 27.377698 Z"
             id="path3340"
             style="stroke-width:0.352778" />
        </g>
      </g>
    </clipPath>
    <clipPath
       clipPathUnits="userSpaceOnUse"
       id="clipPath3358">
      <g
         id="g3364">
        <g
           id="g3362"
           transform="translate(-81.948369,-46.594581)">
          <path
             d="M 27.377698,41.1121 H 324.37777 V 251.11224 H 27.377698 Z"
             id="path3360"
             style="stroke-width:0.352778" />
        </g>
      </g>
    </clipPath>
    <clipPath
       clipPathUnits="userSpaceOnUse"
       id="clipPath3373">
      <g
         id="g3379">
        <g
           id="g3377"
           transform="translate(-81.948369,-46.594581)">
          <path
             d="M 27.377698,41.1121 H 324.37777 V 251.11224 H 27.377698 Z"
             id="path3375"
             style="stroke-width:0.352778" />
        </g>
      </g>
    </clipPath>
    <clipPath
       clipPathUnits="userSpaceOnUse"
       id="clipPath3388">
      <g
         id="g3394">
        <g
           id="g3392"
           transform="translate(-81.948367,-46.594579)">
          <path
             d="M 27.377698,41.1121 H 324.37777 V 251.11224 H 27.377698 Z"
             id="path3390"
             style="stroke-width:0.352778" />
        </g>
      </g>
    </clipPath>
    <clipPath
       clipPathUnits="userSpaceOnUse"
       id="clipPath3403">
      <g
         id="g3409">
        <g
           id="g3407"
           transform="translate(-81.948368,-46.594581)">
          <path
             d="M 27.377698,41.1121 H 324.37777 V 251.11224 H 27.377698 Z"
             id="path3405"
             style="stroke-width:0.352778" />
        </g>
      </g>
    </clipPath>
  </defs>
  <g
     inkscape:label="Layer 1"
     inkscape:groupmode="layer"
     id="layer1"
     transform="translate(-3.1705149,-85.597759)">
    <path
       d="m 38.357343,89.548869 h 4.25767 v 6.51863 h 6.03815 v -6.51863 h 4.25662 v 17.198621 h -4.25662 v -7.168091 h -6.03815 v 7.168091 h -4.25767 z"
       style="fill:#306696;fill-opacity:1;fill-rule:nonzero;stroke:none;stroke-width:0.352778"
       id="path92" />
    <g
       id="g102"
       transform="matrix(0.35277777,0,0,-0.35277777,54.087493,89.548869)"
       clip-path="url(#clipPath1004)"
       style="fill:#306696;fill-opacity:1">
      <path
         d="m 0,0 h 12.203 l 4.91,-20.456 c 1.091,-4.704 2.25,-12.068 2.25,-12.068 H 19.5 c 0,0 1.297,6.682 2.388,11.592 L 26.454,0 h 11.184 l 4.567,-20.796 c 1.091,-4.977 2.319,-11.728 2.319,-11.728 h 0.137 c 0,0 1.362,7.364 2.453,12.206 L 51.955,0 H 64.093 L 50.73,-48.752 H 38.932 l -5.112,23.387 c -0.888,3.887 -1.705,9.069 -1.705,9.069 h -0.137 c 0,0 -0.817,-5.182 -1.637,-9.069 L 25.226,-48.752 H 13.363 Z"
         style="fill:#306696;fill-opacity:1;fill-rule:nonzero;stroke:none"
         id="path104" />
    </g>
    <g
       id="g106"
       transform="matrix(0.35277777,0,0,-0.35277777,82.588623,93.156719)"
       clip-path="url(#clipPath998)"
       style="fill:#306696;fill-opacity:1">
      <path
         d="M 0,0 H -14.183 V 10.227 H 26.389 V 0 H 12.069 V -38.525 H 0 Z"
         style="fill:#306696;fill-opacity:1;fill-rule:nonzero;stroke:none"
         id="path108" />
    </g>
    <path
       d="m 4.568926,103.73812 v 0 c -0.7722305,0 -1.3984111,-0.62618 -1.3984111,-1.39841 v -7.394223 c 0,-0.772231 0.6261806,-1.398411 1.3984111,-1.398411 0.7722305,0 1.3984111,0.62618 1.3984111,1.398411 v 7.394223 c 0,0.77223 -0.6261806,1.39841 -1.3984111,1.39841"
       style="fill:#306696;fill-opacity:1;fill-rule:nonzero;stroke:none;stroke-width:0.352778"
       id="path112"
       clip-path="url(#clipPath3373)" />
    <path
       d="m 9.330473,109.49079 v 0 c -0.7722305,0 -1.3984111,-0.62618 -1.3984111,-1.39841 V 89.193015 c 0,-0.77223 0.6261806,-1.398411 1.3984111,-1.398411 0.772231,0 1.398411,0.626181 1.398411,1.398411 v 18.899365 c 0,0.77223 -0.62618,1.39841 -1.398411,1.39841"
       style="fill:#306696;fill-opacity:1;fill-rule:nonzero;stroke:none;stroke-width:0.352778"
       id="path116"
       clip-path="url(#clipPath3358)" />
    <path
       d="m 14.092021,106.77148 v 0 c -0.772231,0 -1.398411,-0.62618 -1.398411,-1.39841 V 91.8705 c 0,-0.772231 0.62618,-1.398059 1.398411,-1.398059 v 0 c 0.772231,0 1.398411,0.625828 1.398411,1.398059 v 13.50257 c 0,0.77223 -0.62618,1.39841 -1.398411,1.39841"
       style="fill:#306696;fill-opacity:1;fill-rule:nonzero;stroke:none;stroke-width:0.352778"
       id="path120"
       clip-path="url(#clipPath3403)" />
    <path
       d="m 18.853563,111.68744 v 0 c -0.772231,0 -1.398411,-0.62618 -1.398411,-1.39841 V 86.996171 c 0,-0.77223 0.62618,-1.398411 1.398411,-1.398411 0.772231,0 1.398411,0.626181 1.398411,1.398411 v 23.292859 c 0,0.77223 -0.62618,1.39841 -1.398411,1.39841"
       style="fill:#306696;fill-opacity:1;fill-rule:nonzero;stroke:none;stroke-width:0.352778"
       id="path124"
       clip-path="url(#clipPath3388)" />
    <path
       d="m 23.615153,106.81148 v 0 c -0.772231,0 -1.398411,-0.62618 -1.398411,-1.39841 V 91.870636 c 0,-0.772231 0.62618,-1.398411 1.398411,-1.398411 v 0 c 0.772231,0 1.398411,0.62618 1.398411,1.398411 v 13.542434 c 0,0.77223 -0.62618,1.39841 -1.398411,1.39841"
       style="fill:#306696;fill-opacity:1;fill-rule:nonzero;stroke:none;stroke-width:0.352778"
       id="path128"
       clip-path="url(#clipPath3338)" />
    <path
       d="m 28.376703,103.73791 v 0 c -0.772231,0 -1.398411,-0.62618 -1.398411,-1.39841 v -7.39387 c 0,-0.772231 0.62618,-1.398411 1.398411,-1.398411 v 0 c 0.772231,0 1.398411,0.62618 1.398411,1.398411 v 7.39387 c 0,0.77223 -0.62618,1.39841 -1.398411,1.39841"
       style="fill:#306696;fill-opacity:1;fill-rule:nonzero;stroke:none;stroke-width:0.352778"
       id="path132"
       clip-path="url(#clipPath3323)" />
  </g>
</svg>
